<?xml version="1.0" encoding="UTF-8" standalone="no"?>
<!DOCTYPE svg PUBLIC "-//W3C//DTD SVG 1.1//EN"
 "http://www.w3.org/Graphics/SVG/1.1/DTD/svg11.dtd">
<!-- Generated by graphviz version 2.47.0 (20210316.0004)
 -->
<!-- Title: dependencies Pages: 1 -->
<svg width="1433pt" height="284pt"
 viewBox="0.00 0.00 1433.00 284.00" xmlns="http://www.w3.org/2000/svg" xmlns:xlink="http://www.w3.org/1999/xlink">
<g id="graph0" class="graph" transform="scale(1 1) rotate(0) translate(4 280)">
<title>dependencies</title>
<polygon fill="white" stroke="transparent" points="-4,4 -4,-280 1429,-280 1429,4 -4,4"/>
<text text-anchor="start" x="691.51" y="-42.4" font-family="sans-serif" font-weight="bold" font-size="14.00">Legend</text>
<polygon fill="#ffffb3" stroke="transparent" points="478.5,-10 478.5,-30 498.5,-30 498.5,-10 478.5,-10"/>
<text text-anchor="start" x="502.13" y="-15.4" font-family="sans-serif" font-size="14.00"> &#160;Declarations</text>
<polygon fill="#8dd3c7" stroke="transparent" points="591.5,-10 591.5,-30 611.5,-30 611.5,-10 591.5,-10"/>
<text text-anchor="start" x="615.23" y="-15.4" font-family="sans-serif" font-size="14.00"> &#160;Module</text>
<polygon fill="#80b1d3" stroke="transparent" points="677.5,-10 677.5,-30 697.5,-30 697.5,-10 677.5,-10"/>
<text text-anchor="start" x="701.28" y="-15.4" font-family="sans-serif" font-size="14.00"> &#160;Bootstrap</text>
<polygon fill="#fdb462" stroke="transparent" points="774.5,-10 774.5,-30 794.5,-30 794.5,-10 774.5,-10"/>
<text text-anchor="start" x="798.17" y="-15.4" font-family="sans-serif" font-size="14.00"> &#160;Providers</text>
<polygon fill="#fb8072" stroke="transparent" points="870.5,-10 870.5,-30 890.5,-30 890.5,-10 870.5,-10"/>
<text text-anchor="start" x="894.23" y="-15.4" font-family="sans-serif" font-size="14.00"> &#160;Exports</text>
<g id="clust1" class="cluster">
<title>cluster_AppModule</title>
<polygon fill="none" stroke="black" stroke-dasharray="1,5" points="8,-70 8,-268 1417,-268 1417,-70 8,-70"/>
</g>
<g id="clust13" class="cluster">
<title>cluster_AppModule_bootstrap</title>
<polygon fill="none" stroke="black" points="650,-208 650,-260 774,-260 774,-208 650,-208"/>
</g>
<g id="clust11" class="cluster">
<title>cluster_AppModule_imports</title>
<polygon fill="none" stroke="black" points="1265,-78 1265,-130 1409,-130 1409,-78 1265,-78"/>
</g>
<g id="clust2" class="cluster">
<title>cluster_AppModule_declarations</title>
<polygon fill="none" stroke="black" points="16,-78 16,-130 1257,-130 1257,-78 16,-78"/>
</g>
<!-- AppComponent -->
<g id="node1" class="node">
<title>AppComponent</title>
<polygon fill="#ffffb3" stroke="black" points="1248.94,-122 1143.06,-122 1143.06,-86 1248.94,-86 1248.94,-122"/>
<text text-anchor="middle" x="1196" y="-99.8" font-family="Times,serif" font-size="14.00">AppComponent</text>
</g>
<!-- AppModule -->
<g id="node9" class="node">
<title>AppModule</title>
<polygon fill="#8dd3c7" stroke="black" points="753.66,-187 750.66,-191 729.66,-191 726.66,-187 670.34,-187 670.34,-151 753.66,-151 753.66,-187"/>
<text text-anchor="middle" x="712" y="-164.8" font-family="Times,serif" font-size="14.00">AppModule</text>
</g>
<!-- AppComponent&#45;&gt;AppModule -->
<g id="edge1" class="edge">
<title>AppComponent&#45;&gt;AppModule</title>
<path fill="none" stroke="black" d="M1196,-122.13C1196,-142.57 1196,-173 1196,-173 1196,-173 763.68,-173 763.68,-173"/>
<polygon fill="black" stroke="black" points="763.68,-169.5 753.68,-173 763.68,-176.5 763.68,-169.5"/>
</g>
<!-- DialogAddPlayerComponent -->
<g id="node2" class="node">
<title>DialogAddPlayerComponent</title>
<polygon fill="#ffffb3" stroke="black" points="1125.8,-122 946.2,-122 946.2,-86 1125.8,-86 1125.8,-122"/>
<text text-anchor="middle" x="1036" y="-99.8" font-family="Times,serif" font-size="14.00">DialogAddPlayerComponent</text>
</g>
<!-- DialogAddPlayerComponent&#45;&gt;AppModule -->
<g id="edge2" class="edge">
<title>DialogAddPlayerComponent&#45;&gt;AppModule</title>
<path fill="none" stroke="black" d="M1036,-122.27C1036,-140.56 1036,-166 1036,-166 1036,-166 763.69,-166 763.69,-166"/>
<polygon fill="black" stroke="black" points="763.69,-162.5 753.69,-166 763.69,-169.5 763.69,-162.5"/>
</g>
<!-- EditPlayerComponent -->
<g id="node3" class="node">
<title>EditPlayerComponent</title>
<polygon fill="#ffffb3" stroke="black" points="928.43,-122 787.57,-122 787.57,-86 928.43,-86 928.43,-122"/>
<text text-anchor="middle" x="858" y="-99.8" font-family="Times,serif" font-size="14.00">EditPlayerComponent</text>
</g>
<!-- EditPlayerComponent&#45;&gt;AppModule -->
<g id="edge3" class="edge">
<title>EditPlayerComponent&#45;&gt;AppModule</title>
<path fill="none" stroke="black" d="M858,-122.01C858,-138.05 858,-159 858,-159 858,-159 763.84,-159 763.84,-159"/>
<polygon fill="black" stroke="black" points="763.84,-155.5 753.84,-159 763.84,-162.5 763.84,-155.5"/>
</g>
<!-- GameComponent -->
<g id="node4" class="node">
<title>GameComponent</title>
<polygon fill="#ffffb3" stroke="black" points="769.26,-122 654.74,-122 654.74,-86 769.26,-86 769.26,-122"/>
<text text-anchor="middle" x="712" y="-99.8" font-family="Times,serif" font-size="14.00">GameComponent</text>
</g>
<!-- GameComponent&#45;&gt;AppModule -->
<g id="edge4" class="edge">
<title>GameComponent&#45;&gt;AppModule</title>
<path fill="none" stroke="black" d="M712,-122.11C712,-122.11 712,-140.99 712,-140.99"/>
<polygon fill="black" stroke="black" points="708.5,-140.99 712,-150.99 715.5,-140.99 708.5,-140.99"/>
</g>
<!-- GameInfoComponent -->
<g id="node5" class="node">
<title>GameInfoComponent</title>
<polygon fill="#ffffb3" stroke="black" points="637.08,-122 498.92,-122 498.92,-86 637.08,-86 637.08,-122"/>
<text text-anchor="middle" x="568" y="-99.8" font-family="Times,serif" font-size="14.00">GameInfoComponent</text>
</g>
<!-- GameInfoComponent&#45;&gt;AppModule -->
<g id="edge5" class="edge">
<title>GameInfoComponent&#45;&gt;AppModule</title>
<path fill="none" stroke="black" d="M568,-122.01C568,-138.05 568,-159 568,-159 568,-159 659.96,-159 659.96,-159"/>
<polygon fill="black" stroke="black" points="659.96,-162.5 669.96,-159 659.96,-155.5 659.96,-162.5"/>
</g>
<!-- PlayerComponent -->
<g id="node6" class="node">
<title>PlayerComponent</title>
<polygon fill="#ffffb3" stroke="black" points="480.6,-122 363.4,-122 363.4,-86 480.6,-86 480.6,-122"/>
<text text-anchor="middle" x="422" y="-99.8" font-family="Times,serif" font-size="14.00">PlayerComponent</text>
</g>
<!-- PlayerComponent&#45;&gt;AppModule -->
<g id="edge6" class="edge">
<title>PlayerComponent&#45;&gt;AppModule</title>
<path fill="none" stroke="black" d="M422,-122.27C422,-140.56 422,-166 422,-166 422,-166 660.14,-166 660.14,-166"/>
<polygon fill="black" stroke="black" points="660.14,-169.5 670.14,-166 660.14,-162.5 660.14,-169.5"/>
</g>
<!-- PlayerMobileComponent -->
<g id="node7" class="node">
<title>PlayerMobileComponent</title>
<polygon fill="#ffffb3" stroke="black" points="345.54,-122 188.46,-122 188.46,-86 345.54,-86 345.54,-122"/>
<text text-anchor="middle" x="267" y="-99.8" font-family="Times,serif" font-size="14.00">PlayerMobileComponent</text>
</g>
<!-- PlayerMobileComponent&#45;&gt;AppModule -->
<g id="edge7" class="edge">
<title>PlayerMobileComponent&#45;&gt;AppModule</title>
<path fill="none" stroke="black" d="M267,-122.13C267,-142.57 267,-173 267,-173 267,-173 660.14,-173 660.14,-173"/>
<polygon fill="black" stroke="black" points="660.14,-176.5 670.14,-173 660.14,-169.5 660.14,-176.5"/>
</g>
<!-- StartScreenComponent -->
<g id="node8" class="node">
<title>StartScreenComponent</title>
<polygon fill="#ffffb3" stroke="black" points="169.86,-122 24.14,-122 24.14,-86 169.86,-86 169.86,-122"/>
<text text-anchor="middle" x="97" y="-99.8" font-family="Times,serif" font-size="14.00">StartScreenComponent</text>
</g>
<!-- StartScreenComponent&#45;&gt;AppModule -->
<g id="edge8" class="edge">
<title>StartScreenComponent&#45;&gt;AppModule</title>
<path fill="none" stroke="black" d="M97,-122.01C97,-144.49 97,-180 97,-180 97,-180 660.21,-180 660.21,-180"/>
<polygon fill="black" stroke="black" points="660.21,-183.5 670.21,-180 660.21,-176.5 660.21,-183.5"/>
</g>
<!-- AppComponent  -->
<g id="node11" class="node">
<title>AppComponent </title>
<polygon fill="#80b1d3" stroke="black" points="766.44,-252 657.56,-252 657.56,-216 766.44,-216 766.44,-252"/>
<text text-anchor="middle" x="712" y="-229.8" font-family="Times,serif" font-size="14.00">AppComponent </text>
</g>
<!-- AppModule&#45;&gt;AppComponent  -->
<g id="edge10" class="edge">
<title>AppModule&#45;&gt;AppComponent </title>
<path fill="none" stroke="black" stroke-dasharray="1,5" d="M712,-187.11C712,-187.11 712,-205.99 712,-205.99"/>
<polygon fill="black" stroke="black" points="708.5,-205.99 712,-215.99 715.5,-205.99 708.5,-205.99"/>
</g>
<!-- AppRoutingModule -->
<g id="node10" class="node">
<title>AppRoutingModule</title>
<polygon fill="#8dd3c7" stroke="black" points="1401.27,-122 1398.27,-126 1377.27,-126 1374.27,-122 1272.73,-122 1272.73,-86 1401.27,-86 1401.27,-122"/>
<text text-anchor="middle" x="1337" y="-99.8" font-family="Times,serif" font-size="14.00">AppRoutingModule</text>
</g>
<!-- AppRoutingModule&#45;&gt;AppModule -->
<g id="edge9" class="edge">
<title>AppRoutingModule&#45;&gt;AppModule</title>
<path fill="none" stroke="black" d="M1337,-122.01C1337,-144.49 1337,-180 1337,-180 1337,-180 763.98,-180 763.98,-180"/>
<polygon fill="black" stroke="black" points="763.98,-176.5 753.98,-180 763.98,-183.5 763.98,-176.5"/>
</g>
</g>
</svg>
