<?xml version="1.0" encoding="UTF-8" standalone="no"?>
<!DOCTYPE svg PUBLIC "-//W3C//DTD SVG 1.1//EN"
 "http://www.w3.org/Graphics/SVG/1.1/DTD/svg11.dtd">
<!-- Generated by graphviz version 2.47.0 (20210316.0004)
 -->
<!-- Title: dependencies Pages: 1 -->
<svg width="1433pt" height="284pt"
 viewBox="0.00 0.00 1433.00 284.00" xmlns="http://www.w3.org/2000/svg" xmlns:xlink="http://www.w3.org/1999/xlink">
<g id="graph0" class="graph" transform="scale(1 1) rotate(0) translate(4 280)">
<title>dependencies</title>
<polygon fill="white" stroke="transparent" points="-4,4 -4,-280 1429,-280 1429,4 -4,4"/>
<text text-anchor="start" x="691.51" y="-42.4" font-family="sans-serif" font-weight="bold" font-size="14.00">Legend</text>
<polygon fill="#ffffb3" stroke="transparent" points="478.5,-10 478.5,-30 498.5,-30 498.5,-10 478.5,-10"/>
<text text-anchor="start" x="502.13" y="-15.4" font-family="sans-serif" font-size="14.00"> &#160;Declarations</text>
<polygon fill="#8dd3c7" stroke="transparent" points="591.5,-10 591.5,-30 611.5,-30 611.5,-10 591.5,-10"/>
<text text-anchor="start" x="615.23" y="-15.4" font-family="sans-serif" font-size="14.00"> &#160;Module</text>
<polygon fill="#80b1d3" stroke="transparent" points="677.5,-10 677.5,-30 697.5,-30 697.5,-10 677.5,-10"/>
<text text-anchor="start" x="701.28" y="-15.4" font-family="sans-serif" font-size="14.00"> &#160;Bootstrap</text>
<polygon fill="#fdb462" stroke="transparent" points="774.5,-10 774.5,-30 794.5,-30 794.5,-10 774.5,-10"/>
<text text-anchor="start" x="798.17" y="-15.4" font-family="sans-serif" font-size="14.00"> &#160;Providers</text>
<polygon fill="#fb8072" stroke="transparent" points="870.5,-10 870.5,-30 890.5,-30 890.5,-10 870.5,-10"/>
<text text-anchor="start" x="894.23" y="-15.4" font-family="sans-serif" font-size="14.00"> &#160;Exports</text>
<g id="clust1" class="cluster">
<title>cluster_AppModule</title>
<polygon fill="none" stroke="black" stroke-dasharray="1,5" points="8,-70 8,-268 1417,-268 1417,-70 8,-70"/>
</g>
<g id="clust2" class="cluster">
<title>cluster_AppModule_declarations</title>
<polygon fill="none" stroke="black" points="168,-78 168,-130 1409,-130 1409,-78 168,-78"/>
</g>
<g id="clust11" class="cluster">
<title>cluster_AppModule_imports</title>
<polygon fill="none" stroke="black" points="16,-78 16,-130 160,-130 160,-78 16,-78"/>
</g>
<g id="clust13" class="cluster">
<title>cluster_AppModule_bootstrap</title>
<polygon fill="none" stroke="black" points="658,-208 658,-260 782,-260 782,-208 658,-208"/>
</g>
<!-- AppComponent -->
<g id="node1" class="node">
<title>AppComponent</title>
<polygon fill="#ffffb3" stroke="black" points="1400.94,-122 1295.06,-122 1295.06,-86 1400.94,-86 1400.94,-122"/>
<text text-anchor="middle" x="1348" y="-99.8" font-family="Times,serif" font-size="14.00">AppComponent</text>
</g>
<!-- AppModule -->
<g id="node9" class="node">
<title>AppModule</title>
<polygon fill="#8dd3c7" stroke="black" points="761.66,-187 758.66,-191 737.66,-191 734.66,-187 678.34,-187 678.34,-151 761.66,-151 761.66,-187"/>
<text text-anchor="middle" x="720" y="-164.8" font-family="Times,serif" font-size="14.00">AppModule</text>
</g>
<!-- AppComponent&#45;&gt;AppModule -->
<g id="edge1" class="edge">
<title>AppComponent&#45;&gt;AppModule</title>
<path fill="none" stroke="black" d="M1348,-122.01C1348,-144.49 1348,-180 1348,-180 1348,-180 771.69,-180 771.69,-180"/>
<polygon fill="black" stroke="black" points="771.69,-176.5 761.69,-180 771.69,-183.5 771.69,-176.5"/>
</g>
<!-- DialogAddPlayerComponent -->
<g id="node2" class="node">
<title>DialogAddPlayerComponent</title>
<polygon fill="#ffffb3" stroke="black" points="1277.8,-122 1098.2,-122 1098.2,-86 1277.8,-86 1277.8,-122"/>
<text text-anchor="middle" x="1188" y="-99.8" font-family="Times,serif" font-size="14.00">DialogAddPlayerComponent</text>
</g>
<!-- DialogAddPlayerComponent&#45;&gt;AppModule -->
<g id="edge2" class="edge">
<title>DialogAddPlayerComponent&#45;&gt;AppModule</title>
<path fill="none" stroke="black" d="M1188,-122.13C1188,-142.57 1188,-173 1188,-173 1188,-173 771.94,-173 771.94,-173"/>
<polygon fill="black" stroke="black" points="771.94,-169.5 761.94,-173 771.94,-176.5 771.94,-169.5"/>
</g>
<!-- EditPlayerComponent -->
<g id="node3" class="node">
<title>EditPlayerComponent</title>
<polygon fill="#ffffb3" stroke="black" points="1080.43,-122 939.57,-122 939.57,-86 1080.43,-86 1080.43,-122"/>
<text text-anchor="middle" x="1010" y="-99.8" font-family="Times,serif" font-size="14.00">EditPlayerComponent</text>
</g>
<!-- EditPlayerComponent&#45;&gt;AppModule -->
<g id="edge3" class="edge">
<title>EditPlayerComponent&#45;&gt;AppModule</title>
<path fill="none" stroke="black" d="M1010,-122.27C1010,-140.56 1010,-166 1010,-166 1010,-166 771.86,-166 771.86,-166"/>
<polygon fill="black" stroke="black" points="771.86,-162.5 761.86,-166 771.86,-169.5 771.86,-162.5"/>
</g>
<!-- GameComponent -->
<g id="node4" class="node">
<title>GameComponent</title>
<polygon fill="#ffffb3" stroke="black" points="921.26,-122 806.74,-122 806.74,-86 921.26,-86 921.26,-122"/>
<text text-anchor="middle" x="864" y="-99.8" font-family="Times,serif" font-size="14.00">GameComponent</text>
</g>
<!-- GameComponent&#45;&gt;AppModule -->
<g id="edge4" class="edge">
<title>GameComponent&#45;&gt;AppModule</title>
<path fill="none" stroke="black" d="M864,-122.01C864,-138.05 864,-159 864,-159 864,-159 772.04,-159 772.04,-159"/>
<polygon fill="black" stroke="black" points="772.04,-155.5 762.04,-159 772.04,-162.5 772.04,-155.5"/>
</g>
<!-- GameInfoComponent -->
<g id="node5" class="node">
<title>GameInfoComponent</title>
<polygon fill="#ffffb3" stroke="black" points="789.08,-122 650.92,-122 650.92,-86 789.08,-86 789.08,-122"/>
<text text-anchor="middle" x="720" y="-99.8" font-family="Times,serif" font-size="14.00">GameInfoComponent</text>
</g>
<!-- GameInfoComponent&#45;&gt;AppModule -->
<g id="edge5" class="edge">
<title>GameInfoComponent&#45;&gt;AppModule</title>
<path fill="none" stroke="black" d="M720,-122.11C720,-122.11 720,-140.99 720,-140.99"/>
<polygon fill="black" stroke="black" points="716.5,-140.99 720,-150.99 723.5,-140.99 716.5,-140.99"/>
</g>
<!-- PlayerComponent -->
<g id="node6" class="node">
<title>PlayerComponent</title>
<polygon fill="#ffffb3" stroke="black" points="632.6,-122 515.4,-122 515.4,-86 632.6,-86 632.6,-122"/>
<text text-anchor="middle" x="574" y="-99.8" font-family="Times,serif" font-size="14.00">PlayerComponent</text>
</g>
<!-- PlayerComponent&#45;&gt;AppModule -->
<g id="edge6" class="edge">
<title>PlayerComponent&#45;&gt;AppModule</title>
<path fill="none" stroke="black" d="M574,-122.01C574,-138.05 574,-159 574,-159 574,-159 668.16,-159 668.16,-159"/>
<polygon fill="black" stroke="black" points="668.16,-162.5 678.16,-159 668.16,-155.5 668.16,-162.5"/>
</g>
<!-- PlayerMobileComponent -->
<g id="node7" class="node">
<title>PlayerMobileComponent</title>
<polygon fill="#ffffb3" stroke="black" points="497.54,-122 340.46,-122 340.46,-86 497.54,-86 497.54,-122"/>
<text text-anchor="middle" x="419" y="-99.8" font-family="Times,serif" font-size="14.00">PlayerMobileComponent</text>
</g>
<!-- PlayerMobileComponent&#45;&gt;AppModule -->
<g id="edge7" class="edge">
<title>PlayerMobileComponent&#45;&gt;AppModule</title>
<path fill="none" stroke="black" d="M419,-122.27C419,-140.56 419,-166 419,-166 419,-166 668.15,-166 668.15,-166"/>
<polygon fill="black" stroke="black" points="668.15,-169.5 678.15,-166 668.15,-162.5 668.15,-169.5"/>
</g>
<!-- StartScreenComponent -->
<g id="node8" class="node">
<title>StartScreenComponent</title>
<polygon fill="#ffffb3" stroke="black" points="321.86,-122 176.14,-122 176.14,-86 321.86,-86 321.86,-122"/>
<text text-anchor="middle" x="249" y="-99.8" font-family="Times,serif" font-size="14.00">StartScreenComponent</text>
</g>
<!-- StartScreenComponent&#45;&gt;AppModule -->
<g id="edge8" class="edge">
<title>StartScreenComponent&#45;&gt;AppModule</title>
<path fill="none" stroke="black" d="M249,-122.13C249,-142.57 249,-173 249,-173 249,-173 668.2,-173 668.2,-173"/>
<polygon fill="black" stroke="black" points="668.2,-176.5 678.2,-173 668.2,-169.5 668.2,-176.5"/>
</g>
<!-- AppComponent  -->
<g id="node11" class="node">
<title>AppComponent </title>
<polygon fill="#80b1d3" stroke="black" points="774.44,-252 665.56,-252 665.56,-216 774.44,-216 774.44,-252"/>
<text text-anchor="middle" x="720" y="-229.8" font-family="Times,serif" font-size="14.00">AppComponent </text>
</g>
<!-- AppModule&#45;&gt;AppComponent  -->
<g id="edge10" class="edge">
<title>AppModule&#45;&gt;AppComponent </title>
<path fill="none" stroke="black" stroke-dasharray="1,5" d="M720,-187.11C720,-187.11 720,-205.99 720,-205.99"/>
<polygon fill="black" stroke="black" points="716.5,-205.99 720,-215.99 723.5,-205.99 716.5,-205.99"/>
</g>
<!-- AppRoutingModule -->
<g id="node10" class="node">
<title>AppRoutingModule</title>
<polygon fill="#8dd3c7" stroke="black" points="152.27,-122 149.27,-126 128.27,-126 125.27,-122 23.73,-122 23.73,-86 152.27,-86 152.27,-122"/>
<text text-anchor="middle" x="88" y="-99.8" font-family="Times,serif" font-size="14.00">AppRoutingModule</text>
</g>
<!-- AppRoutingModule&#45;&gt;AppModule -->
<g id="edge9" class="edge">
<title>AppRoutingModule&#45;&gt;AppModule</title>
<path fill="none" stroke="black" d="M88,-122.01C88,-144.49 88,-180 88,-180 88,-180 668.04,-180 668.04,-180"/>
<polygon fill="black" stroke="black" points="668.04,-183.5 678.04,-180 668.04,-176.5 668.04,-183.5"/>
</g>
</g>
</svg>
